<svg xmlns="http://www.w3.org/2000/svg" width="17" height="17" viewBox="0 0 17 17">
  <defs>
    <style>
      .cls-1 {
        fill: #d7d7d7;
        fill-rule: evenodd;
      }
    </style>
  </defs>
  <path id="Forma_1" data-name="Forma 1" class="cls-1" d="M469.537,705.476a0.618,0.618,0,0,0-.733.5l-0.45,2.21A7.96,7.96,0,0,0,461.423,704a8.272,8.272,0,0,0-8.035,8.472,0.619,0.619,0,1,0,1.236,0,7,7,0,0,1,6.8-7.169,6.74,6.74,0,0,1,5.88,3.569l-2.061-.466a0.619,0.619,0,0,0-.733.5,0.653,0.653,0,0,0,.474.774l3.537,0.8a0.561,0.561,0,0,0,.182.012,0.6,0.6,0,0,0,.284-0.1,0.654,0.654,0,0,0,.268-0.411l0.758-3.729A0.652,0.652,0,0,0,469.537,705.476Zm-0.622,6.142a0.638,0.638,0,0,0-.6.673,7.347,7.347,0,0,1-1.831,5.136,6.61,6.61,0,0,1-4.739,2.266c-0.076,0-.151,0-0.226,0a6.728,6.728,0,0,1-5.782-3.4l2.148,0.608a0.615,0.615,0,0,0,.757-0.461,0.656,0.656,0,0,0-.437-0.8l-3.494-.988a0.587,0.587,0,0,0-.469.065,0.65,0.65,0,0,0-.288.395L453.02,718.8a0.657,0.657,0,0,0,.437.8,0.6,0.6,0,0,0,.161.022,0.624,0.624,0,0,0,.6-0.483l0.527-2.07a7.942,7.942,0,0,0,6.78,3.929c0.089,0,.178,0,0.268,0a7.8,7.8,0,0,0,5.6-2.678,8.679,8.679,0,0,0,2.164-6.069A0.631,0.631,0,0,0,468.915,711.618Z" transform="translate(-453 -704)"/>
</svg>
