<svg xmlns="http://www.w3.org/2000/svg" xmlns:xlink="http://www.w3.org/1999/xlink" width="127" height="91" viewBox="0 0 127 91">
  <defs>
    <style>
      .cls-1 {
        fill: #88c3ff;
        fill-rule: evenodd;
        filter: url(#filter);
      }
    </style>
    <filter id="filter" x="896" y="421" width="127" height="91" filterUnits="userSpaceOnUse">
      <feFlood result="flood" flood-color="#fff"/>
      <feComposite result="composite" operator="in" in2="SourceGraphic"/>
      <feBlend result="blend" in2="SourceGraphic"/>
    </filter>
  </defs>
  <path class="cls-1" d="M1014.65,448.582H970.6a38.14,38.14,0,0,0-11.2-17.881,38.063,38.063,0,1,0-33.43,65.578l9.389,9.393a4.111,4.111,0,0,0,7.017-2.908v-6.576a38.3,38.3,0,0,0,4.508-1.305v0.26a8.365,8.365,0,0,0,8.353,8.358h14.027l7.472,7.476a3.484,3.484,0,0,0,5.948-2.465V503.5h31.959a8.366,8.366,0,0,0,8.35-8.358v-38.2A8.366,8.366,0,0,0,1014.65,448.582ZM940.044,492.6a1.989,1.989,0,0,0-1.639,1.959v8.2a0.108,0.108,0,0,1-.082.123,0.11,0.11,0,0,1-.145-0.028l-9.809-9.815a1.992,1.992,0,0,0-1.019-.544,34.1,34.1,0,0,1,2.785-67.305,35.907,35.907,0,0,1,3.941-.218,33.68,33.68,0,0,1,22.677,8.688A34.076,34.076,0,0,1,940.044,492.6Zm78.976,2.544a4.379,4.379,0,0,1-4.37,4.378H980.7a1.989,1.989,0,0,0-1.989,1.99v5.808L971.5,500.1a1.988,1.988,0,0,0-1.406-.582h-14.85a4.382,4.382,0,0,1-4.376-4.378V493.2a38.022,38.022,0,0,0,20.649-40.642h43.132a4.379,4.379,0,0,1,4.37,4.377v38.2h0Zm-11.45-31.122a2,2,0,0,0-2.82,0l-19.8,19.818-9.2-9.2a1.989,1.989,0,1,0-2.813,2.813l10.6,10.608a1.987,1.987,0,0,0,2.812,0l21.219-21.225A2,2,0,0,0,1007.57,464.022Zm-73.539,10.037h0a1.992,1.992,0,0,0-1.99,1.991h0v0a1.991,1.991,0,0,0,1.99,1.99h0a1.991,1.991,0,0,0,1.99-1.99v0h0A1.992,1.992,0,0,0,934.031,474.059Zm8.859-30.219a12.483,12.483,0,0,0-8.862-3.738,12.614,12.614,0,0,0-12.6,12.6,1.989,1.989,0,1,0,3.978,0,8.631,8.631,0,0,1,8.618-8.623,8.785,8.785,0,0,1,8.619,8.624,8.676,8.676,0,0,1-6.138,8.26,6.2,6.2,0,0,0-4.469,5.963v0.634a1.989,1.989,0,1,0,3.978,0v-0.634a2.248,2.248,0,0,1,1.634-2.151,12.682,12.682,0,0,0,8.973-12.072A12.494,12.494,0,0,0,942.89,443.84Z" transform="translate(-896 -421)"/>
</svg>
