<svg xmlns="http://www.w3.org/2000/svg" width="104" height="117" viewBox="0 0 104 117">
  <defs>
    <style>
      .cls-1 {
        fill: #fff;
        fill-rule: evenodd;
      }
    </style>
  </defs>
  <path class="cls-1" d="M1352.86,421.662h21.41a1.975,1.975,0,0,1,0,3.943h-21.41A1.975,1.975,0,0,1,1352.86,421.662Zm0,18.02h12.21a1.976,1.976,0,0,1,0,3.943h-12.21A1.975,1.975,0,0,1,1352.86,439.682Zm18.51,0h2.9a1.975,1.975,0,0,1,0,3.943h-2.9A1.975,1.975,0,0,1,1371.37,439.682Zm-18.51-9.01h1.91a1.976,1.976,0,0,1,0,3.943h-1.91A1.975,1.975,0,0,1,1352.86,430.672Zm8.79,0h12.62a1.975,1.975,0,0,1,0,3.943h-12.62A1.976,1.976,0,0,1,1361.65,430.672ZM1349.78,413h27.57a8.07,8.07,0,0,1,7.78,8.316v22.1a8.07,8.07,0,0,1-7.78,8.316h-3.66l0.2,5.081a2.017,2.017,0,0,1-.92,1.8,1.759,1.759,0,0,1-.92.261,1.737,1.737,0,0,1-1-.317l-9.86-6.82h-11.41a8.07,8.07,0,0,1-7.78-8.316v-22.1A8.07,8.07,0,0,1,1349.78,413Zm-4.09,30.411a4.24,4.24,0,0,0,4.09,4.373h11.95a1.726,1.726,0,0,1,1,.316l7.32,5.063-0.13-3.323a2.046,2.046,0,0,1,.51-1.448,1.794,1.794,0,0,1,1.33-.608h5.59a4.247,4.247,0,0,0,4.09-4.373v-22.1a4.247,4.247,0,0,0-4.09-4.373h-27.57a4.24,4.24,0,0,0-4.09,4.373v22.1h0Zm41.72,59.027a18.427,18.427,0,0,1,8.1-5.446,19.312,19.312,0,0,1-2.77-4.01h-0.87c-4.61,0-8.37-4.011-8.37-8.943V461.5c0-15.3,11.65-27.747,25.95-27.747h9.57c14.31,0,25.95,12.447,25.95,27.747v18.324a5.521,5.521,0,0,1-5.32,5.686,5.011,5.011,0,0,1-1.7-.3A20.1,20.1,0,0,1,1432.97,497a18.339,18.339,0,0,1,8.09,5.445,20.535,20.535,0,0,1,4.94,13.464v12.123a1.913,1.913,0,0,1-1.84,1.972h-59.85a1.914,1.914,0,0,1-1.84-1.972V515.905A20.539,20.539,0,0,1,1387.41,502.438Zm6.73-34.782,7.52-11.249a1.8,1.8,0,0,1,1.73-.81,1.882,1.882,0,0,1,1.49,1.242,22.058,22.058,0,0,0,7.69,10.366,19.937,19.937,0,0,0,11.82,3.91h9.94V462.3c0-9.721-7.4-17.631-16.49-17.631h-7.21c-9.09,0-16.49,7.91-16.49,17.631v5.361h0Zm-2.96,21.322a19.892,19.892,0,0,1-.65-3.769,5.025,5.025,0,0,1-1.71.3,4.948,4.948,0,0,1-1.47-.225A4.794,4.794,0,0,0,1391.18,488.978Zm-3.99-9.155a2.635,2.635,0,0,0,.02.28,1.833,1.833,0,0,0,.46.951,1.573,1.573,0,0,0,1.15.512,1.69,1.69,0,0,0,1.63-1.743v-9.73a1.634,1.634,0,1,0-3.26,0v9.73Zm50.83,0a1.814,1.814,0,0,0,.47,1.231,1.579,1.579,0,0,0,1.16.512,1.69,1.69,0,0,0,1.63-1.743v-9.73a1.634,1.634,0,1,0-3.26,0v9.73Zm0-17.528v2.387a4.985,4.985,0,0,1,3.26,0V461.5c0-13.125-9.99-23.8-22.26-23.8h-9.57c-12.27,0-22.26,10.678-22.26,23.8v3.182a4.985,4.985,0,0,1,3.26,0V462.3c0-11.9,9.06-21.574,20.18-21.574h7.21C1428.97,440.722,1438.02,450.4,1438.02,462.3Zm-3.69,21.243v-8.479h-9.94a23.416,23.416,0,0,1-13.9-4.6,25.631,25.631,0,0,1-7.66-9.016l-8.69,13v9.1a16.209,16.209,0,0,0,.95,5.5h12.44a1.975,1.975,0,0,1,0,3.943h-10.39a14.862,14.862,0,0,0,3.46,3.457,13.876,13.876,0,0,0,3.37,1.783,0.274,0.274,0,0,1,.05.018l8.02,2.888a6.532,6.532,0,0,0,4.39,0l8.02-2.888a14.119,14.119,0,0,0,3.43-1.8A15.79,15.79,0,0,0,1434.33,483.538Zm-30.96,28.5,9.02-5.191v-1.568a9.944,9.944,0,0,1-1.53-.415l-5.98-2.154Zm12.71-6.759v1.568l9.02,5.191-1.51-9.327-5.98,2.153A9.944,9.944,0,0,1,1416.08,505.279Zm0,20.778h26.23V515.905c0-8-5.68-14.795-13.05-15.736a17.177,17.177,0,0,1-2.15,1.192l2.27,14a2.044,2.044,0,0,1-.74,1.936,1.766,1.766,0,0,1-1.08.372,1.728,1.728,0,0,1-.87-0.235l-4.36-2.512-6.25,6.676v4.461h0Zm2.85-13.088-4.69-2.705-4.7,2.705,4.7,5.021Zm-32.77,13.088h26.23V521.6l-6.24-6.675-4.37,2.511a1.719,1.719,0,0,1-.87.236,1.772,1.772,0,0,1-1.08-.372,2.044,2.044,0,0,1-.74-1.936l2.27-14a16.748,16.748,0,0,1-2.15-1.194c-7.37.944-13.05,7.735-13.05,15.738v10.152Z" transform="translate(-1342 -413)"/>
</svg>
