<svg xmlns="http://www.w3.org/2000/svg" width="113" height="107" viewBox="0 0 113 107">
  <defs>
    <style>
      .cls-1 {
        fill: #fff;
        fill-rule: evenodd;
      }
    </style>
  </defs>
  <path class="cls-1" d="M542.224,492.124a14.993,14.993,0,0,0,7.206-12.8V467.845a15.009,15.009,0,0,0-12.677-14.807V441.954a1.65,1.65,0,0,0-1.65-1.65H517.427v-6.622A10.7,10.7,0,0,0,506.744,423H481.01a10.694,10.694,0,0,0-10.683,10.682V440.3H452.65a1.65,1.65,0,0,0-1.65,1.65v58.578a1.65,1.65,0,0,0,1.65,1.65H467.2a1.65,1.65,0,1,0,0-3.3H454.3V465.565a20,20,0,0,0,12.715,8.616v1.81a5.28,5.28,0,1,0,10.56,0v-1.4H490.32a1.65,1.65,0,1,0,0-3.3H477.575v-4.039a1.65,1.65,0,0,0-1.65-1.65h-7.26a1.65,1.65,0,0,0-1.65,1.65v3.553A16.741,16.741,0,0,1,454.3,454.582V443.6h79.153v9.288c-0.1.006-.194,0.018-0.292,0.026s-0.226.019-.338,0.031c-0.137.015-.272,0.033-0.408,0.052-0.108.014-.217,0.028-0.325,0.045-0.137.021-.274,0.048-0.41,0.073-0.1.02-.208,0.037-0.311,0.059-0.141.03-.279,0.063-0.418,0.1-0.1.023-.2,0.044-0.291,0.069-0.148.039-.293,0.083-0.439,0.125-0.085.026-.172,0.048-0.256,0.075-0.165.051-.326,0.108-0.488,0.165-0.065.023-.13,0.043-0.194,0.067q-0.678.249-1.324,0.561c-0.045.021-.088,0.045-0.133,0.067-0.169.084-.336,0.168-0.5,0.257-0.068.037-.133,0.076-0.2,0.113-0.14.079-.281,0.158-0.418,0.241-0.075.045-.147,0.093-0.221,0.139-0.126.08-.253,0.159-0.376,0.242-0.078.052-.153,0.107-0.23,0.16-0.117.082-.234,0.163-0.349,0.248-0.077.058-.153,0.118-0.23,0.177-0.11.085-.22,0.17-0.327,0.258-0.077.062-.152,0.127-0.228,0.192-0.1.088-.207,0.176-0.309,0.267-0.075.068-.148,0.137-0.222,0.206-0.1.092-.2,0.184-0.292,0.278-0.072.072-.143,0.146-0.215,0.219-0.093.1-.185,0.191-0.275,0.289-0.07.076-.139,0.153-0.207,0.23-0.088.1-.175,0.2-0.259,0.3-0.068.08-.133,0.161-0.2,0.242-0.083.1-.164,0.2-0.244,0.309-0.064.084-.126,0.168-0.188,0.253-0.077.106-.153,0.212-0.228,0.319-0.06.088-.119,0.175-0.177,0.263-0.072.109-.143,0.219-0.212,0.33-0.056.09-.112,0.18-0.166,0.272q-0.1.168-.195,0.339c-0.053.093-.1,0.186-0.155,0.281-0.061.115-.12,0.232-0.178,0.349-0.048.095-.1,0.191-0.142,0.289-0.056.118-.109,0.237-0.162,0.357-0.043.1-.087,0.2-0.129,0.3-0.05.122-.1,0.244-0.145,0.367-0.038.1-.077,0.2-0.114,0.3-0.045.125-.087,0.251-0.128,0.378-0.034.1-.068,0.2-0.1,0.307-0.039.128-.074,0.258-0.11,0.388-0.029.1-.058,0.206-0.085,0.311-0.033.132-.062,0.266-0.092,0.4-0.024.1-.048,0.207-0.07,0.311-0.027.139-.05,0.278-0.074,0.418-0.018.1-.037,0.2-0.053,0.305-0.022.148-.039,0.3-0.057,0.446-0.011.1-.025,0.192-0.035,0.29-0.016.165-.027,0.331-0.038,0.5,0,0.083-.014.165-0.018,0.249-0.013.25-.019,0.5-0.019,0.755v3.224a16.791,16.791,0,0,1-2.312.218v-4.034a1.65,1.65,0,0,0-1.65-1.65h-7.26a1.65,1.65,0,0,0-1.65,1.65v4.039H495.818a1.65,1.65,0,1,0,0,3.3h10.766v1.4a5.28,5.28,0,0,0,10.56,0v-1.406a19.677,19.677,0,0,0,2.311-.182v4.917c0,0.251.007,0.5,0.019,0.749,0,0.1.015,0.192,0.021,0.289,0.011,0.151.02,0.3,0.035,0.45,0.012,0.12.029,0.237,0.043,0.356s0.029,0.248.047,0.372,0.044,0.263.068,0.394c0.019,0.107.036,0.215,0.057,0.322,0.029,0.142.061,0.283,0.094,0.423,0.021,0.094.041,0.187,0.065,0.281,0.037,0.151.08,0.3,0.122,0.449,0.023,0.081.044,0.161,0.068,0.241,0.049,0.161.1,0.321,0.157,0.48,0.021,0.065.042,0.129,0.065,0.193,0.062,0.175.129,0.348,0.2,0.52,0.018,0.045.035,0.091,0.054,0.136,0.078,0.192.161,0.381,0.248,0.569l0.03,0.068a15.09,15.09,0,0,0,5.816,6.512,30.853,30.853,0,0,0-12.194,6.758H472.7a1.65,1.65,0,0,0,0,3.3h38.612a27.511,27.511,0,0,0-6.426,17.433v8.735a1.65,1.65,0,0,0,1.65,1.65H519.1a1.65,1.65,0,1,0,0-3.3H508.186v-7.085a24.42,24.42,0,0,1,7.918-17.741c0.051-.049.1-0.1,0.155-0.144,0.2-.184.4-0.366,0.6-0.545l0.048-.042q0.6-.526,1.228-1.016l0.229-.175c0.111-.086.224-0.171,0.338-0.255s0.223-.165.336-0.245c0.047-.035.1-0.068,0.143-0.1a28,28,0,0,1,7.637-3.8l2.678,5.2-3.578,15.535a1.647,1.647,0,0,0,.494,1.587l6.917,6.331a1.651,1.651,0,0,0,2.229,0l6.917-6.331a1.647,1.647,0,0,0,.494-1.587L539.39,500.75l2.679-5.2a27.906,27.906,0,0,1,10.713,6.328,24.42,24.42,0,0,1,7.918,17.741V526.7H524.6a1.65,1.65,0,1,0,0,3.3H562.35a1.65,1.65,0,0,0,1.65-1.65v-8.734C564,506.868,554.613,495.644,542.224,492.124Zm-71.91-19.337V468.9h3.96v7.088a1.98,1.98,0,0,1-3.96,0v-3.2h0ZM508.222,440.3H479.531v-5.439a2.732,2.732,0,0,1,2.729-2.729h23.233a2.732,2.732,0,0,1,2.729,2.729V440.3h0Zm5.9,0h-2.6v-5.439a6.035,6.035,0,0,0-6.029-6.028H482.26a6.035,6.035,0,0,0-6.029,6.028v5.44h-2.605v-6.623a7.392,7.392,0,0,1,7.384-7.383h25.733a7.391,7.391,0,0,1,7.383,7.383V440.3Zm-0.281,32.638v3.049a1.98,1.98,0,0,1-3.96,0V468.9h3.96v4.039h0Zm8.918-5.1a11.694,11.694,0,0,1,11.08-11.664q0.3-.015.6-0.015c0.188,0,.375.006,0.561,0.015h0.039a11.694,11.694,0,0,1,11.08,11.664v3.93c-5.322-.988-7.476-6.4-7.572-6.646a1.653,1.653,0,0,0-2.99-.207c-0.15.271-3.591,6.294-12.8,6.95v-4.027h0Zm16.774,48.25-5.094,4.662-5.094-4.662,3.2-13.906h3.78Zm-9.434-21.37c0.144-.026.288-0.051,0.433-0.075l0.307-.05c0.18-.028.361-0.055,0.541-0.08,0.236-.031.471-0.06,0.707-0.085l0.284-.028,0.069-.006q0.368-.035.735-0.058l0.3-.018h0c0.2-.01.4-0.016,0.6-0.021,0.124,0,.247.009,0.371,0.009s0.248-.006.371-0.009c0.2,0,.4.011,0.6,0.021l0.191,0.01c0.289,0.017.578,0.04,0.867,0.067l0.323,0.033q0.36,0.037.718,0.086c0.177,0.024.353,0.051,0.529,0.078l0.313,0.051c0.143,0.024.287,0.048,0.43,0.075l-2.142,4.164h-4.394Zm5.023-3.733c-0.034,0-.068,0-0.1,0l-0.124.008-0.037,0c-0.133,0-.264-0.008-0.4-0.01h-0.045c-0.133,0-.265.007-0.4,0.01A11.785,11.785,0,0,1,522.771,479.9c-0.009-.193-0.015-0.387-0.015-0.583v-4.149a19.908,19.908,0,0,0,14.014-6.387,13.262,13.262,0,0,0,9.36,6.327v4.21A11.7,11.7,0,0,1,535.126,490.985Z" transform="translate(-451 -423)"/>
</svg>
