<svg xmlns="http://www.w3.org/2000/svg" width="18.03" height="18" viewBox="0 0 18.03 18">
  <defs>
    <style>
      .cls-1 {
        fill: #2a89ea;
        fill-rule: evenodd;
      }
    </style>
  </defs>
  <path class="cls-1" d="M1537.91,197.108l-1.26-.214a6.817,6.817,0,0,0-.51-1.227l0.74-1.043a1.1,1.1,0,0,0-.12-1.434l-1.12-1.121a1.1,1.1,0,0,0-1.43-.12l-1.04.745a7.074,7.074,0,0,0-1.27-.523l-0.22-1.25a1.107,1.107,0,0,0-1.09-.93H1529a1.118,1.118,0,0,0-1.1.93l-0.21,1.279a6.8,6.8,0,0,0-1.23.516l-1.03-.745a1.128,1.128,0,0,0-.65-0.207,1.109,1.109,0,0,0-.79.327l-1.12,1.122a1.114,1.114,0,0,0-.12,1.434l0.75,1.058a7.7,7.7,0,0,0-.5,1.231l-1.25.21a1.11,1.11,0,0,0-.93,1.1v1.585a1.111,1.111,0,0,0,.93,1.1l1.28,0.218a6.881,6.881,0,0,0,.52,1.223l-0.74,1.031a1.1,1.1,0,0,0,.12,1.435l1.12,1.121a1.1,1.1,0,0,0,1.43.12l1.05-.752a7.173,7.173,0,0,0,1.19.489l0.21,1.265a1.118,1.118,0,0,0,1.1.93h1.59a1.11,1.11,0,0,0,1.1-.93l0.21-1.265a6.994,6.994,0,0,0,1.23-.508l1.04,0.745a1.121,1.121,0,0,0,.65.207h0a1.123,1.123,0,0,0,.79-0.327l1.12-1.122a1.126,1.126,0,0,0,.12-1.434l-0.75-1.046a7.034,7.034,0,0,0,.51-1.227l1.26-.211a1.11,1.11,0,0,0,.93-1.1v-1.584A1.094,1.094,0,0,0,1537.91,197.108Zm-0.09,2.684a0.094,0.094,0,0,1-.08.1l-1.58.263a0.486,0.486,0,0,0-.4.373,6.425,6.425,0,0,1-.66,1.577,0.525,0.525,0,0,0,.02.553l0.93,1.31a0.092,0.092,0,0,1-.01.128l-1.12,1.122a0.1,0.1,0,0,1-.07.03,0.128,0.128,0,0,1-.06-0.019l-1.3-.93a0.52,0.52,0,0,0-.56-0.022,6,6,0,0,1-1.57.655,0.515,0.515,0,0,0-.38.406l-0.26,1.581a0.1,0.1,0,0,1-.1.083h-1.58a0.1,0.1,0,0,1-.1-0.083l-0.26-1.581a0.526,0.526,0,0,0-.38-0.406,6.29,6.29,0,0,1-1.54-.633,0.53,0.53,0,0,0-.26-0.067,0.5,0.5,0,0,0-.29.094l-1.32.937a0.071,0.071,0,0,1-.05.019,0.083,0.083,0,0,1-.07-0.031l-1.13-1.121a0.118,0.118,0,0,1-.01-0.128l0.93-1.3a0.51,0.51,0,0,0,.02-0.556,6,6,0,0,1-.66-1.574,0.508,0.508,0,0,0-.41-0.372l-1.59-.271a0.1,0.1,0,0,1-.08-0.1v-1.585a0.1,0.1,0,0,1,.08-0.1l1.57-.263a0.51,0.51,0,0,0,.41-0.376,6.019,6.019,0,0,1,.64-1.581,0.5,0.5,0,0,0-.02-0.55l-0.94-1.317a0.1,0.1,0,0,1,.01-0.128l1.12-1.122a0.115,0.115,0,0,1,.07-0.03,0.08,0.08,0,0,1,.06.019l1.3,0.926a0.52,0.52,0,0,0,.56.022,6.021,6.021,0,0,1,1.57-.662,0.509,0.509,0,0,0,.37-0.406l0.27-1.592a0.1,0.1,0,0,1,.1-0.083h1.58a0.1,0.1,0,0,1,.1.083l0.26,1.569a0.531,0.531,0,0,0,.38.41,6.177,6.177,0,0,1,1.62.663,0.5,0.5,0,0,0,.55-0.023l1.3-.933a0.067,0.067,0,0,1,.05-0.019,0.085,0.085,0,0,1,.07.03l1.13,1.122a0.118,0.118,0,0,1,.01.128l-0.93,1.305a0.507,0.507,0,0,0-.03.554,5.737,5.737,0,0,1,.66,1.577,0.5,0.5,0,0,0,.41.372l1.58,0.268a0.1,0.1,0,0,1,.08.1v1.584h-0.01Zm-7.99-4.682a3.888,3.888,0,1,0,3.89,3.888A3.9,3.9,0,0,0,1529.83,195.11Zm0,6.76A2.872,2.872,0,1,1,1532.7,199,2.876,2.876,0,0,1,1529.83,201.87Z" transform="translate(-1520.81 -190)"/>
</svg>
