<svg xmlns="http://www.w3.org/2000/svg" width="11" height="10.969" viewBox="0 0 11 10.969">
  <defs>
    <style>
      .cls-1 {
        fill: #9dce5a;
        fill-rule: evenodd;
      }
    </style>
  </defs>
  <path id="Shape_5_copy_3" data-name="Shape 5 copy 3" class="cls-1" d="M1343.78,246.624c-0.4.417-.81,0.814-1.22,1.219,0,0.006-.01.007-0.01,0-0.8-.8-1.59-1.594-2.38-2.384,0.41-.414.81-0.849,1.24-1.254a0.811,0.811,0,0,1,1.1.028c0.42,0.414.85,0.835,1.26,1.265A0.832,0.832,0,0,1,1343.78,246.624Zm-1.65,1.65q-2.76,2.748-5.5,5.5a0.581,0.581,0,0,1-.21.134c-0.93.356-1.87,0.7-2.8,1.064a0.43,0.43,0,0,1-.62-0.428,0.925,0.925,0,0,1,.05-0.165c0.35-.941.71-1.882,1.06-2.822a0.463,0.463,0,0,1,.1-0.151c1.85-1.847,3.69-3.693,5.54-5.538a0.42,0.42,0,0,1,.07-0.07c0.8,0.8,1.59,1.59,2.42,2.416A0.314,0.314,0,0,0,1342.13,248.274Zm-7.67,3.547q-0.315.835-.63,1.678a0.17,0.17,0,0,0,.04.134c0.16,0.17.33,0.33,0.49,0.5a0.14,0.14,0,0,0,.18.037l1.21-.458c0.15-.055.3-0.112,0.43-0.164C1335.61,252.97,1335.04,252.4,1334.46,251.821Z" transform="translate(-1333 -244.031)"/>
</svg>
