<svg xmlns="http://www.w3.org/2000/svg" width="25" height="20" viewBox="0 0 25 20">
  <defs>
    <style>
      .cls-1 {
        fill: #2a89ea;
        fill-rule: evenodd;
      }
    </style>
  </defs>
  <path class="cls-1" d="M1501.26,473.854h-5.52a0.766,0.766,0,0,0-.75.775v1.74a0.766,0.766,0,0,0,.75.775h5.52a0.766,0.766,0,0,0,.75-0.775v-1.74A0.766,0.766,0,0,0,1501.26,473.854Zm-0.22,2.293h-5.08v-1.3h5.08v1.3Zm9.71-6.6,0.01,0-3.63-7.389a1.7,1.7,0,0,0-1.53-.968h-0.69V460.5a0.494,0.494,0,0,0-.49-0.5h-11.84a0.494,0.494,0,0,0-.49.5v0.687h-0.69a1.7,1.7,0,0,0-1.53.968l-3.63,7.389,0.01,0a1.732,1.732,0,0,0-.25.9v7.806a1.723,1.723,0,0,0,1.7,1.745h21.6a1.723,1.723,0,0,0,1.7-1.745v-7.806A1.732,1.732,0,0,0,1510.75,469.546Zm-5.84-7.253h0.69a0.637,0.637,0,0,1,.57.36l2.97,6.051h-2.02v-1.862a0.493,0.493,0,0,0-.48-0.5h-0.6V463.67a0.494,0.494,0,0,0-.49-0.5h-0.64v-0.879Zm1.24,5.047V468.7h-2.55a1.118,1.118,0,0,0-1.02.678l-0.7,1.592a0.045,0.045,0,0,1-.04.025h-6.68a0.045,0.045,0,0,1-.04-0.025l-0.7-1.592a1.118,1.118,0,0,0-1.02-.678h-2.55V467.34h15.3ZM1493.06,461h10.88v2.175h-10.88V461Zm12.01,3.171v2.175h-13.14v-2.175h13.14Zm-14.24-1.515a0.637,0.637,0,0,1,.57-0.36h0.69v0.879h-0.64a0.494,0.494,0,0,0-.49.5v2.673h-0.6a0.493,0.493,0,0,0-.48.5V468.7h-2.02Zm18.47,16.24h-21.6a0.625,0.625,0,0,1-.62-0.638v-7.806a0.625,0.625,0,0,1,.62-0.638h5.7a0.036,0.036,0,0,1,.04.025l0.7,1.592a1.118,1.118,0,0,0,1.02.678h6.68a1.119,1.119,0,0,0,1.02-.677l0.7-1.593h0a0.036,0.036,0,0,1,.04-0.025h5.7a0.625,0.625,0,0,1,.62.638v7.806h0A0.625,0.625,0,0,1,1509.3,478.893Z" transform="translate(-1486 -460)"/>
</svg>
