<svg xmlns="http://www.w3.org/2000/svg" width="22" height="25" viewBox="0 0 22 25">
  <defs>
    <style>
      .cls-1 {
        fill: #2a89ea;
        fill-rule: evenodd;
      }
    </style>
  </defs>
  <path id="Forma_1" data-name="Forma 1" class="cls-1" d="M1463.87,143.587a10.163,10.163,0,0,1-3.2-7.405v-4.088a6.619,6.619,0,0,0-3.88-6.008,9.279,9.279,0,0,0-1.59-.552v-0.261a2.275,2.275,0,0,0-4.55,0v0.3a9.312,9.312,0,0,0-1.44.517,6.887,6.887,0,0,0-4.03,6v4.091a10.058,10.058,0,0,1-3.05,7.405,0.457,0.457,0,0,0,.24.77l4.32,0.745c0.81,0.139,1.55.253,2.26,0.346a4.5,4.5,0,0,0,8.11,0c0.71-.093,1.44-0.206,2.24-0.344l4.32-.745A0.456,0.456,0,0,0,1463.87,143.587Zm-12.31-18.314a1.365,1.365,0,0,1,2.73,0v0.082a9.051,9.051,0,0,0-2.73.022v-0.1Zm1.44,21.818a3.65,3.65,0,0,1-2.92-1.507,27.24,27.24,0,0,0,5.85,0A3.667,3.667,0,0,1,1453,147.091Zm6.15-2.885q-1.305.225-2.43,0.369h0c-0.34.042-.66,0.079-0.98,0.111a0.034,0.034,0,0,0-.01,0c-0.29.029-.57,0.052-0.85,0.073l-0.16.01q-0.375.024-.72,0.038c-0.05,0-.1,0-0.15.006-0.57.019-1.13,0.019-1.69,0l-0.15-.007q-0.36-.013-0.72-0.037l-0.17-.011c-0.27-.02-0.55-0.043-0.83-0.071l-0.03,0c-0.31-.031-0.64-0.068-0.97-0.11h0c-0.76-.095-1.56-0.219-2.44-0.37l-3.49-.6a10.945,10.945,0,0,0,2.73-7.423v-4.088a5.96,5.96,0,0,1,3.5-5.178,8.163,8.163,0,0,1,1.6-.538s0.01,0,.01,0a8.288,8.288,0,0,1,3.45-.031,0.134,0.134,0,0,0,.02,0,8.252,8.252,0,0,1,1.74.568,5.761,5.761,0,0,1,3.35,5.178v4.091a11.063,11.063,0,0,0,2.87,7.423Zm-3.31-16.052a6.95,6.95,0,0,0-5.67,0,4.587,4.587,0,0,0-2.71,3.933,0.454,0.454,0,0,0,.45.457h0a0.458,0.458,0,0,0,.46-0.451,3.656,3.656,0,0,1,2.18-3.114,6.018,6.018,0,0,1,4.91,0,0.464,0.464,0,0,0,.61-0.224A0.458,0.458,0,0,0,1455.84,128.154Z" transform="translate(-1442 -123)"/>
</svg>
