<svg xmlns="http://www.w3.org/2000/svg" width="25" height="19" viewBox="0 0 25 19">
  <defs>
    <style>
      .cls-1 {
        fill: #2a89ea;
        fill-rule: evenodd;
      }
    </style>
  </defs>
  <path class="cls-1" d="M1368.43,127.892h-14.48a0.5,0.5,0,0,0,0,1h14.48A0.5,0.5,0,0,0,1368.43,127.892Zm3.07,0h-0.63a0.5,0.5,0,0,0,0,1h0.63A0.5,0.5,0,0,0,1371.5,127.892Zm4,6.24h-0.7v-6.284a1.843,1.843,0,0,0-1.84-1.848h-19.55a2.417,2.417,0,0,0-2.41,2.421v13.642a2.932,2.932,0,0,0,2.92,2.937h20.38a0.5,0.5,0,0,0,.5-0.5v-3.906h0.7a0.5,0.5,0,0,0,.5-0.5v-5.46A0.5,0.5,0,0,0,1375.5,134.132ZM1353.41,127h19.55a0.849,0.849,0,0,1,.85.847v1.993h-20.4A1.42,1.42,0,0,1,1353.41,127Zm20.4,17h-19.89a1.93,1.93,0,0,1-1.92-1.936V130.38a2.358,2.358,0,0,0,1.41.462h20.4v3.29h-2.83a3.231,3.231,0,0,0,0,6.461h2.83V144Zm1.19-4.407h-4.02a2.229,2.229,0,0,1,0-4.458H1375v4.458Zm-3.9-3.692a1.463,1.463,0,1,0,1.46,1.463A1.458,1.458,0,0,0,1371.1,135.9Zm0,1.924a0.461,0.461,0,1,1,.46-0.461A0.464,0.464,0,0,1,1371.1,137.824Z" transform="translate(-1351 -126)"/>
</svg>
