<svg xmlns="http://www.w3.org/2000/svg" width="22" height="22" viewBox="0 0 22 22">
  <defs>
    <style>
      .cls-1 {
        fill: #2a89ea;
        fill-rule: evenodd;
      }
    </style>
  </defs>
  <path class="cls-1" d="M1316.04,144.8a9.8,9.8,0,1,0-.04,0h0.04m0,1.2H1316a11,11,0,0,1,0-22h0.04a11,11,0,0,1,0,22h0Zm-0.26-15.119a1.351,1.351,0,0,0,.96-0.3,1.132,1.132,0,0,0,.32-0.852,1.287,1.287,0,1,0-1.28,1.156h0Zm1.17,1.071h-2.34v8.607h2.34v-8.607h0Z" transform="translate(-1305.03 -124)"/>
</svg>
