<svg xmlns="http://www.w3.org/2000/svg" width="22" height="22" viewBox="0 0 22 22">
  <defs>
    <style>
      .cls-1 {
        fill: #2a89ea;
        fill-rule: evenodd;
      }
    </style>
  </defs>
  <path class="cls-1" d="M1411.02,144.8a9.8,9.8,0,1,0-9.82-9.8c0,1.734-.55,3.364.24,4.779,1.68,2.992,5.88,5.019,9.54,5.019h0.04m0,1.2h-0.04a11,11,0,0,1,0-22h0.04a11,11,0,0,1,0,22h0Zm0.73-9.446V136.13a1.181,1.181,0,0,1,.18-0.683,4.1,4.1,0,0,1,.85-0.759c0.66-.471-0.01-0.313.22-0.688a6.241,6.241,0,0,0,1-2c0-.774-1-0.264-1-1,0-1.235-1.04-1-2-1a5.244,5.244,0,0,0-3.01.407s0.89-.762,1.01-0.407a2.607,2.607,0,0,1,0,1c0.9-.46,1.3,0,2,0a2.243,2.243,0,0,1,1.1.5,0.786,0.786,0,0,1,.17.153,0.871,0.871,0,0,1,.17.543,1.229,1.229,0,0,1-.24.741,4.227,4.227,0,0,1-.97.858,3.709,3.709,0,0,0-1.05,1.064,2.232,2.232,0,0,0-.29,1.174v0.522h1.86Zm-1.76,3.291a1.452,1.452,0,0,0,1.81-.007,1.2,1.2,0,0,0,.32-0.877,1.155,1.155,0,0,0-.32-0.887,1.232,1.232,0,0,0-.9-0.309,1.29,1.29,0,0,0-.92.3,1.187,1.187,0,0,0-.32.9,1.161,1.161,0,0,0,.33.884h0Z" transform="translate(-1400 -124)"/>
</svg>
