<svg xmlns="http://www.w3.org/2000/svg" width="20" height="20" viewBox="0 0 20 20">
  <defs>
    <style>
      .cls-1 {
        fill-rule: evenodd;
      }
    </style>
  </defs>
  <path id="Forma_1" data-name="Forma 1" class="cls-1" d="M378.945,458.577v-1.52A1.054,1.054,0,0,1,380,456h0a1.055,1.055,0,0,1,1.054,1.053h0v1.52A1.056,1.056,0,0,1,380,459.633h0a1.056,1.056,0,0,1-1.053-1.056h0Zm0,16.362v-1.518A1.056,1.056,0,0,1,380,472.366h0a1.056,1.056,0,0,1,1.054,1.055h0v1.518A1.057,1.057,0,0,1,380,476h0a1.056,1.056,0,0,1-1.053-1.057h0ZM384.5,461.5a1.057,1.057,0,0,1,0-1.491h0l1.074-1.074a1.053,1.053,0,0,1,1.492,0h0a1.048,1.048,0,0,1,0,1.488h0l-1.075,1.077a1.06,1.06,0,0,1-.745.307h0a1.062,1.062,0,0,1-.746-0.307h0Zm-11.571,11.569a1.059,1.059,0,0,1,0-1.492h0l1.074-1.073a1.06,1.06,0,0,1,1.493,0h0a1.059,1.059,0,0,1,0,1.492h0l-1.076,1.073a1.047,1.047,0,0,1-.746.308h0a1.048,1.048,0,0,1-.745-0.308h0Zm14.491-6.014A1.053,1.053,0,0,1,386.368,466h0a1.053,1.053,0,0,1,1.054-1.054h1.519A1.056,1.056,0,0,1,390,466h0a1.055,1.055,0,0,1-1.055,1.054h-1.519Zm-16.364,0A1.054,1.054,0,0,1,370,466h0a1.054,1.054,0,0,1,1.054-1.054h1.519A1.056,1.056,0,0,1,373.631,466h0a1.055,1.055,0,0,1-1.054,1.054h-1.519Zm14.518,6.014L384.5,471.99a1.054,1.054,0,0,1,0-1.489h0a1.056,1.056,0,0,1,1.49,0h0l1.075,1.073a1.059,1.059,0,0,1,0,1.492h0a1.057,1.057,0,0,1-.746.308h0a1.052,1.052,0,0,1-.746-0.308h0ZM374.005,461.5l-1.074-1.077a1.054,1.054,0,0,1,0-1.488h0a1.052,1.052,0,0,1,1.491,0h0l1.076,1.074a1.057,1.057,0,0,1,0,1.491h0a1.068,1.068,0,0,1-.746.307h0a1.065,1.065,0,0,1-.747-0.307h0Z" transform="translate(-370 -456)"/>
</svg>
