<svg xmlns="http://www.w3.org/2000/svg" width="19" height="20" viewBox="0 0 19 20">
  <metadata><?xpacket begin="﻿" id="W5M0MpCehiHzreSzNTczkc9d"?>
<x:xmpmeta xmlns:x="adobe:ns:meta/" x:xmptk="Adobe XMP Core 5.6-c138 79.159824, 2016/09/14-01:09:01        ">
   <rdf:RDF xmlns:rdf="http://www.w3.org/1999/02/22-rdf-syntax-ns#">
      <rdf:Description rdf:about=""/>
   </rdf:RDF>
</x:xmpmeta>
                                                                                                    
                                                                                                    
                                                                                                    
                                                                                                    
                                                                                                    
                                                                                                    
                                                                                                    
                                                                                                    
                                                                                                    
                                                                                                    
                                                                                                    
                                                                                                    
                                                                                                    
                                                                                                    
                                                                                                    
                                                                                                    
                                                                                                    
                                                                                                    
                                                                                                    
                                                                                                    
                           
<?xpacket end="w"?></metadata>
<defs>
    <style>
      .cls-1 {
        fill-rule: evenodd;
      }
    </style>
  </defs>
  <path id="Forma_1" data-name="Forma 1" class="cls-1" d="M415.667,567H424a0.334,0.334,0,0,0,0-.667h-8.333A0.334,0.334,0,1,0,415.667,567Zm0-2.667H419a0.333,0.333,0,0,0,0-.666h-3.333A0.333,0.333,0,1,0,415.667,564.333Zm0,5.334H424a0.334,0.334,0,0,0,0-.667h-8.333A0.334,0.334,0,1,0,415.667,569.667Zm5.666,2h-5.666a0.333,0.333,0,1,0,0,.666h5.666A0.333,0.333,0,1,0,421.333,571.667Zm-1,2.666h-4.666a0.334,0.334,0,1,0,0,.667h4.666A0.334,0.334,0,1,0,420.333,574.333Zm7.334-3.879v-6.592L422.805,559H412v20h14.667A4.331,4.331,0,0,0,427.667,570.454ZM423,560.138l3.529,3.529H423v-3.529Zm1.359,18.195H412.667V559.667h9.666v4.666H427v6.015q-0.171-.015-0.333-0.015a4.339,4.339,0,0,0-4.334,4.334c0,0.133.009,0.264,0.02,0.394l0.009,0.091c0.015,0.127.033,0.253,0.058,0.377,0,0.014.007,0.029,0.01,0.043,0.024,0.113.053,0.224,0.086,0.333l0.024,0.082c0.038,0.117.08,0.233,0.127,0.346L422.7,576.4c0.043,0.1.09,0.2,0.14,0.289l0.035,0.069c0.059,0.105.121,0.208,0.188,0.309l0.047,0.067c0.061,0.088.125,0.174,0.192,0.257l0.038,0.048q0.115,0.138.243,0.267c0.02,0.021.041,0.041,0.063,0.062,0.081,0.079.165,0.157,0.253,0.23l0.023,0.02c0.094,0.077.192,0.149,0.293,0.219l0.073,0.05C424.309,578.3,424.334,578.317,424.359,578.333Zm2.308,0a3.667,3.667,0,1,1,0-7.333c0.1,0,.206.007,0.308,0.016s0.2,0.022.3,0.039l0.148,0.025A3.666,3.666,0,0,1,426.667,578.333Zm1.65-5.316a0.333,0.333,0,0,0-.472,0l-1.178,1.178-1.179-1.178a0.333,0.333,0,0,0-.471.471l1.178,1.179-1.178,1.178a0.333,0.333,0,0,0,.471.472l1.179-1.179,1.178,1.179a0.334,0.334,0,0,0,.472-0.472l-1.179-1.178,1.179-1.179A0.333,0.333,0,0,0,428.317,573.017Z" transform="translate(-412 -559)"/>
</svg>
