<svg xmlns="http://www.w3.org/2000/svg" width="21" height="22" viewBox="0 0 21 22">
  <metadata><?xpacket begin="﻿" id="W5M0MpCehiHzreSzNTczkc9d"?>
<x:xmpmeta xmlns:x="adobe:ns:meta/" x:xmptk="Adobe XMP Core 5.6-c138 79.159824, 2016/09/14-01:09:01        ">
   <rdf:RDF xmlns:rdf="http://www.w3.org/1999/02/22-rdf-syntax-ns#">
      <rdf:Description rdf:about=""/>
   </rdf:RDF>
</x:xmpmeta>
                                                                                                    
                                                                                                    
                                                                                                    
                                                                                                    
                                                                                                    
                                                                                                    
                                                                                                    
                                                                                                    
                                                                                                    
                                                                                                    
                                                                                                    
                                                                                                    
                                                                                                    
                                                                                                    
                                                                                                    
                                                                                                    
                                                                                                    
                                                                                                    
                                                                                                    
                                                                                                    
                           
<?xpacket end="w"?></metadata>
<defs>
    <style>
      .cls-1 {
        fill-rule: evenodd;
      }
    </style>
  </defs>
  <path class="cls-1" d="M390.866,958.217a0.387,0.387,0,0,0-.055-0.045l-2.937-2.949a5.517,5.517,0,0,0-.305-7.446,5.451,5.451,0,0,0-3.873-1.611,5.757,5.757,0,0,0-.587.032,5.847,5.847,0,0,0,.518-2.341,6.6,6.6,0,0,0-.749-4.471l-0.006-.086-0.042,0a5.97,5.97,0,0,0-1.074-1.288A5.131,5.131,0,0,0,378.565,937a5.629,5.629,0,0,0-3.229,1.017c-2.12,1.458-1.906,5.134-1.906,5.134a3.874,3.874,0,0,0,.415.073c-0.019.206-.03,0.417-0.03,0.633a6.491,6.491,0,0,0,1.368,3.8l-0.01,1.307-0.009.022c-0.1.194-.487,0.605-1.978,1.175a10.1,10.1,0,0,1-1.684.66l-0.065.019A2.093,2.093,0,0,0,370,952.823v2.51h9.613c0.067,0.076.137,0.15,0.209,0.223a5.461,5.461,0,0,0,7.406.314l2.988,3,0,0A0.458,0.458,0,1,0,390.866,958.217Zm-8.441-17.7a5.264,5.264,0,0,1,.29.975l-0.052-.06a2.516,2.516,0,0,0-.542-0.465A1.729,1.729,0,0,1,382.425,940.519Zm-7.941.785a3.959,3.959,0,0,1,1.367-2.53,4.7,4.7,0,0,1,2.714-.858,4.938,4.938,0,0,1,1.655.287,2.935,2.935,0,0,1,.923.494,5.1,5.1,0,0,1,.845.986,0.858,0.858,0,0,1-1.1.941,3.934,3.934,0,0,0-1.946.609,8.307,8.307,0,0,1-4.128,1.135c-0.17,0-.326-0.006-0.464-0.014A8.538,8.538,0,0,1,374.484,941.3Zm0.244,2.553a5.63,5.63,0,0,1,.029-0.572h0.06a9.194,9.194,0,0,0,4.58-1.257,3.087,3.087,0,0,1,1.494-.488,1.877,1.877,0,0,1,1.652,1.554,1.824,1.824,0,0,0,.155.333c0.01,0.141.016,0.283,0.016,0.429a5.265,5.265,0,0,1-.755,2.592,5.5,5.5,0,0,0-3.1,2.627,1.2,1.2,0,0,1-.141.01,4.035,4.035,0,0,1-2.467-1.561A5.773,5.773,0,0,1,374.728,943.857Zm3.723,6.219a5.5,5.5,0,0,0-.191.9h-0.122l-0.111-.559Zm-1.469,4.34h-6.069v-1.593a1.178,1.178,0,0,1,.8-1.113l0.038-.011a7.535,7.535,0,0,0,1.445-.543c0.124-.06.221-0.107,0.318-0.143a7.4,7.4,0,0,0,1.927-1l1.285,1.46,0.5-.408,0.093,0.468Zm-0.154-4.2-0.806-.916,0.063-.139v-0.194l0-.3a5.964,5.964,0,0,0,1.408,1Zm1.893,4.2H377.9l0.3-2.521h0.026a5.5,5.5,0,0,0,.728,2.521h-0.229Zm8.2,0.491a4.593,4.593,0,1,1,1.338-3.241A4.523,4.523,0,0,1,386.923,954.907ZM383.7,948a3.66,3.66,0,0,0-3.653,3.666,0.457,0.457,0,1,0,.913,0,2.748,2.748,0,0,1,2.74-2.75A0.458,0.458,0,0,0,383.7,948Z" transform="translate(-370 -937)"/>
</svg>
