<svg xmlns="http://www.w3.org/2000/svg" width="20" height="21" viewBox="0 0 20 21">
  <defs>
    <style>
      .cls-1 {
        fill-rule: evenodd;
      }
    </style>
  </defs>
  <path class="cls-1" d="M389.584,724H370.416a0.417,0.417,0,0,0-.416.418v2.437a0.414,0.414,0,0,0,.121.294h0l7.971,8.08v6.95a0.42,0.42,0,0,0,.156.327l2.983,2.4a0.41,0.41,0,0,0,.259.092,0.416,0.416,0,0,0,.416-0.418v-9.351l7.971-8.08h0a0.414,0.414,0,0,0,.121-0.294v-2.437A0.417,0.417,0,0,0,389.584,724Zm-8.508,19.711-2.151-1.731v-6.5h2.151v8.234Zm0.242-9.07h-2.636l-7.268-7.368h17.172Zm7.85-8.2H370.832v-1.6h18.336v1.6Zm-11.439,5.406-0.179-.18a0.415,0.415,0,0,0-.588,0,0.419,0.419,0,0,0,0,.592l0.179,0.18a0.413,0.413,0,0,0,.588,0A0.421,0.421,0,0,0,377.729,731.842Zm-1.094-1.1-2.863-2.881a0.415,0.415,0,0,0-.588,0,0.421,0.421,0,0,0,0,.592l2.863,2.881a0.415,0.415,0,0,0,.588,0A0.419,0.419,0,0,0,376.635,730.742Z" transform="translate(-370 -724)"/>
</svg>
