<svg xmlns="http://www.w3.org/2000/svg" width="17.031" height="18" viewBox="0 0 17.031 18">
  <defs>
    <style>
      .cls-1 {
        fill: #3b404d;
        fill-rule: evenodd;
      }
    </style>
  </defs>
  <path id="icon-search" class="cls-1" d="M388.755,794.4l-4.194-4.455a7.344,7.344,0,0,0,1.669-4.673,7.117,7.117,0,1,0-7.116,7.268,6.936,6.936,0,0,0,4.077-1.316l4.227,4.49a0.915,0.915,0,0,0,1.311.026A0.963,0.963,0,0,0,388.755,794.4Zm-9.641-14.5a5.373,5.373,0,1,1-5.259,5.371A5.322,5.322,0,0,1,379.114,779.9Z" transform="translate(-372 -778)"/>
</svg>
