<svg xmlns="http://www.w3.org/2000/svg" width="20" height="20" viewBox="0 0 20 20">
  <defs>
    <style>
      .cls-1 {
        fill-rule: evenodd;
      }
    </style>
  </defs>
  <path id="Forma_1" data-name="Forma 1" class="cls-1" d="M388.976,403H371.05a1.038,1.038,0,0,0-1.05,1.025v12.508a1.038,1.038,0,0,0,1.025,1.05h0.641V416.75h-0.633a0.2,0.2,0,0,1-.2-0.2v-12.5a0.2,0.2,0,0,1,.183-0.216H388.95a0.2,0.2,0,0,1,.2.2v12.5a0.2,0.2,0,0,1-.2.2h-1.866v0.834h1.883A1.038,1.038,0,0,0,390,416.55v-12.5A1.037,1.037,0,0,0,388.976,403Zm-11.059,13.75h3.333v0.833h-3.333V416.75Zm-2.084-10.417H373.75a1.25,1.25,0,0,0-1.25,1.25V421.75a1.25,1.25,0,0,0,1.25,1.25h2.083a1.25,1.25,0,0,0,1.25-1.25V407.583A1.25,1.25,0,0,0,375.833,406.333Zm0.417,15.417a0.417,0.417,0,0,1-.417.417H373.75a0.417,0.417,0,0,1-.417-0.417v-0.417h1.25V420.5h-1.25V418h1.25v-0.833h-1.25v-2.084h1.25V414.25h-1.25v-2.5h1.25v-0.834h-1.25v-2.083h1.25V408h-1.25v-0.417a0.417,0.417,0,0,1,.417-0.417h2.083a0.417,0.417,0,0,1,.417.417V421.75h0Zm6.538-7.833a0.409,0.409,0,0,0-.15-0.092l-0.055-.029-2.083-.834a0.418,0.418,0,0,0-.542.232,0.425,0.425,0,0,0,0,.31l0.834,2.083a1.87,1.87,0,0,0,.125.2l7.05,7.046a0.417,0.417,0,0,0,.587,0l1.284-1.284a0.417,0.417,0,0,0,0-.587Zm-1.459.77-0.237-.6,0.6,0.238ZM381.8,415.5l0.7-.7,5.417,5.417-0.7.7Zm6.463,6.454-0.458-.454,0.691-.692,0.454,0.454Zm0.071-16.871a0.417,0.417,0,0,0-.417-0.417H386.25V405.5h1.25v1.25h0.834v-1.667h0Zm-0.834,2.5h0.834v0.833H387.5v-0.833Z" transform="translate(-370 -403)"/>
</svg>
