<svg xmlns="http://www.w3.org/2000/svg" width="21" height="24" viewBox="0 0 21 24">
  <defs>
    <style>
      .cls-1 {
        fill-rule: evenodd;
      }
    </style>
  </defs>
  <path id="Forma_1_copy" data-name="Forma 1 copy" class="cls-1" d="M389.874,632.763a9.771,9.771,0,0,1-3.051-7.108V621.73a6.35,6.35,0,0,0-3.707-5.767,8.713,8.713,0,0,0-1.518-.531v-0.25a2.173,2.173,0,1,0-4.345,0v0.288a8.543,8.543,0,0,0-1.367.5,6.6,6.6,0,0,0-3.848,5.76v3.928a9.7,9.7,0,0,1-2.914,7.108,0.437,0.437,0,0,0,.233.74l4.124,0.715c0.768,0.133,1.476.242,2.149,0.332a4.288,4.288,0,0,0,7.749,0c0.67-.089,1.374-0.2,2.138-0.33l4.124-.716A0.437,0.437,0,0,0,389.874,632.763Zm-11.753-17.581a1.3,1.3,0,1,1,2.607,0v0.079a8.6,8.6,0,0,0-2.607.021v-0.1Zm1.383,20.945a3.479,3.479,0,0,1-2.788-1.446,26.9,26.9,0,0,0,2.783.151,26.562,26.562,0,0,0,2.794-.153A3.476,3.476,0,0,1,379.5,636.127Zm5.865-2.769c-0.833.144-1.6,0.262-2.32,0.354h0c-0.318.041-.627,0.076-0.93,0.107h-0.009c-0.277.028-.548,0.051-0.816,0.07l-0.152.011c-0.232.015-.461,0.027-0.689,0.036l-0.141.006c-0.541.018-1.074,0.018-1.614,0l-0.144-.006q-0.337-.014-0.681-0.036l-0.162-.011c-0.261-.019-0.524-0.041-0.794-0.067l-0.028,0c-0.3-.03-0.608-0.065-0.924-0.106h0c-0.725-.092-1.492-0.21-2.329-0.355l-3.329-.578a10.53,10.53,0,0,0,2.607-7.125V621.73a5.713,5.713,0,0,1,3.342-4.971,7.753,7.753,0,0,1,1.519-.516h0.014a7.86,7.86,0,0,1,3.293-.03h0.017a7.781,7.781,0,0,1,1.663.545,5.541,5.541,0,0,1,3.2,4.971v3.927a10.641,10.641,0,0,0,2.743,7.126Zm-3.156-15.41a6.615,6.615,0,0,0-5.418,0,4.412,4.412,0,0,0-2.585,3.777,0.436,0.436,0,0,0,.432.439h0a0.436,0.436,0,0,0,.435-0.434,3.514,3.514,0,0,1,2.079-2.989,5.728,5.728,0,0,1,4.692,0A0.436,0.436,0,0,0,382.213,617.948Z" transform="translate(-369 -613)"/>
</svg>
