<svg xmlns="http://www.w3.org/2000/svg" width="19" height="20" viewBox="0 0 19 20">
  <metadata><?xpacket begin="﻿" id="W5M0MpCehiHzreSzNTczkc9d"?>
<x:xmpmeta xmlns:x="adobe:ns:meta/" x:xmptk="Adobe XMP Core 5.6-c138 79.159824, 2016/09/14-01:09:01        ">
   <rdf:RDF xmlns:rdf="http://www.w3.org/1999/02/22-rdf-syntax-ns#">
      <rdf:Description rdf:about=""/>
   </rdf:RDF>
</x:xmpmeta>
                                                                                                    
                                                                                                    
                                                                                                    
                                                                                                    
                                                                                                    
                                                                                                    
                                                                                                    
                                                                                                    
                                                                                                    
                                                                                                    
                                                                                                    
                                                                                                    
                                                                                                    
                                                                                                    
                                                                                                    
                                                                                                    
                                                                                                    
                                                                                                    
                                                                                                    
                                                                                                    
                           
<?xpacket end="w"?></metadata>
<defs>
    <style>
      .cls-1 {
        fill-rule: evenodd;
      }
    </style>
  </defs>
  <path id="Forma_1" data-name="Forma 1" class="cls-1" d="M373.667,358H382a0.334,0.334,0,0,0,0-.667h-8.333A0.334,0.334,0,1,0,373.667,358Zm0-2.667H377a0.333,0.333,0,0,0,0-.666h-3.333A0.333,0.333,0,1,0,373.667,355.333Zm0,5.334H382a0.334,0.334,0,0,0,0-.667h-8.333A0.334,0.334,0,1,0,373.667,360.667Zm5.666,2h-5.666a0.333,0.333,0,1,0,0,.666h5.666A0.333,0.333,0,1,0,379.333,362.667Zm-1,2.666h-4.666a0.334,0.334,0,1,0,0,.667h4.666A0.334,0.334,0,1,0,378.333,365.333Zm7.334-3.879v-6.592L380.805,350H370v20h14.667A4.331,4.331,0,0,0,385.667,361.454ZM381,351.138l3.529,3.529H381v-3.529Zm1.359,18.2H370.667V350.667h9.666v4.666H385v6.015q-0.171-.015-0.333-0.015a4.339,4.339,0,0,0-4.334,4.334c0,0.133.009,0.264,0.02,0.394l0.009,0.091c0.015,0.127.033,0.253,0.058,0.377,0,0.014.007,0.029,0.01,0.043,0.024,0.113.053,0.224,0.086,0.333l0.024,0.082c0.038,0.117.08,0.233,0.127,0.346L380.7,367.4c0.043,0.1.09,0.195,0.14,0.289l0.035,0.069c0.059,0.1.121,0.208,0.188,0.309l0.047,0.067c0.061,0.088.125,0.174,0.192,0.257l0.038,0.048q0.115,0.138.243,0.267c0.02,0.021.041,0.041,0.063,0.062,0.081,0.079.165,0.157,0.253,0.23l0.023,0.02c0.094,0.077.192,0.149,0.293,0.219l0.073,0.05C382.309,369.3,382.334,369.317,382.359,369.333Zm2.308,0a3.667,3.667,0,1,1,0-7.333c0.1,0,.206.007,0.308,0.016s0.2,0.022.3,0.039l0.148,0.025A3.666,3.666,0,0,1,384.667,369.333Zm2-4H385v-1.666a0.334,0.334,0,1,0-.667,0v1.666h-1.666a0.334,0.334,0,1,0,0,.667h1.666v1.667a0.334,0.334,0,0,0,.667,0V366h1.667A0.334,0.334,0,0,0,386.667,365.333Z" transform="translate(-370 -350)"/>
</svg>
