<svg xmlns="http://www.w3.org/2000/svg" width="20" height="21" viewBox="0 0 20 21">
  <metadata><?xpacket begin="﻿" id="W5M0MpCehiHzreSzNTczkc9d"?>
<x:xmpmeta xmlns:x="adobe:ns:meta/" x:xmptk="Adobe XMP Core 5.6-c138 79.159824, 2016/09/14-01:09:01        ">
   <rdf:RDF xmlns:rdf="http://www.w3.org/1999/02/22-rdf-syntax-ns#">
      <rdf:Description rdf:about=""/>
   </rdf:RDF>
</x:xmpmeta>
                                                                                                    
                                                                                                    
                                                                                                    
                                                                                                    
                                                                                                    
                                                                                                    
                                                                                                    
                                                                                                    
                                                                                                    
                                                                                                    
                                                                                                    
                                                                                                    
                                                                                                    
                                                                                                    
                                                                                                    
                                                                                                    
                                                                                                    
                                                                                                    
                                                                                                    
                                                                                                    
                           
<?xpacket end="w"?></metadata>
<defs>
    <style>
      .cls-1 {
        fill-rule: evenodd;
      }
    </style>
  </defs>
  <path id="Forma_1" data-name="Forma 1" class="cls-1" d="M394.86,678.4h8.772a0.35,0.35,0,1,0,0-.7H394.86A0.35,0.35,0,1,0,394.86,678.4Zm0-2.8h3.508a0.35,0.35,0,1,0,0-.7H394.86A0.35,0.35,0,1,0,394.86,675.6Zm0,5.6h8.772a0.35,0.35,0,0,0,0-.7H394.86A0.35,0.35,0,1,0,394.86,681.2Zm5.965,2.1H394.86a0.35,0.35,0,1,0,0,.7h5.965A0.35,0.35,0,0,0,400.825,683.3Zm-1.053,2.8H394.86a0.35,0.35,0,1,0,0,.7h4.912A0.35,0.35,0,1,0,399.772,686.1Zm7.719-4.073v-6.922L402.373,670H391v21h15.439A4.546,4.546,0,0,0,407.491,682.027ZM402.579,671.2l3.714,3.7h-3.714v-3.7Zm1.431,19.1H391.7V670.7h10.175v4.9h4.912v6.315c-0.12-.01-0.236-0.015-0.35-0.015a4.561,4.561,0,0,0-4.562,4.55c0,0.14.009,0.277,0.021,0.414,0,0.032.006,0.063,0.01,0.095,0.015,0.134.034,0.266,0.06,0.4,0,0.015.008,0.031,0.011,0.046,0.025,0.118.056,0.234,0.09,0.349,0.009,0.029.017,0.058,0.026,0.086,0.04,0.124.084,0.245,0.133,0.363l0.03,0.066c0.045,0.1.094,0.205,0.147,0.305,0.013,0.023.024,0.048,0.037,0.071,0.062,0.111.128,0.219,0.2,0.325,0.016,0.024.033,0.047,0.05,0.071,0.064,0.092.131,0.182,0.2,0.269,0.013,0.017.026,0.034,0.04,0.05,0.081,0.1.166,0.191,0.255,0.281l0.066,0.065c0.086,0.083.174,0.165,0.267,0.241a0.241,0.241,0,0,0,.024.021c0.1,0.082.2,0.157,0.308,0.231l0.078,0.052Zm2.429,0a3.85,3.85,0,1,1,0-7.7c0.109,0,.217.007,0.325,0.016s0.207,0.024.318,0.042l0.156,0.026A3.849,3.849,0,0,1,406.439,690.3Zm1.817-5.8-1.964,2.814-1.385-1.135a0.351,0.351,0,1,0-.445.542l1.679,1.375a0.355,0.355,0,0,0,.223.079l0.048,0a0.355,0.355,0,0,0,.24-0.147l2.18-3.125A0.351,0.351,0,0,0,408.256,684.5Z" transform="translate(-391 -670)"/>
</svg>
