<svg xmlns="http://www.w3.org/2000/svg" width="20" height="16" viewBox="0 0 20 16">
  <defs>
    <style>
      .cls-1 {
        fill-rule: evenodd;
      }
    </style>
  </defs>
  <path class="cls-1" d="M382.206,520.083H377.8a0.612,0.612,0,0,0-.6.62V522.1a0.612,0.612,0,0,0,.6.62h4.411a0.613,0.613,0,0,0,.6-0.62V520.7A0.613,0.613,0,0,0,382.206,520.083Zm-0.173,1.835h-4.066v-1.037h4.066v1.037Zm7.771-5.281,0.006,0-2.906-5.91a1.363,1.363,0,0,0-1.225-.775h-0.552V509.4a0.393,0.393,0,0,0-.388-0.4h-9.478a0.393,0.393,0,0,0-.388.4v0.549h-0.552a1.361,1.361,0,0,0-1.224.775l-2.907,5.91,0.006,0a1.422,1.422,0,0,0-.2.722V523.6a1.378,1.378,0,0,0,1.357,1.4h17.286A1.378,1.378,0,0,0,390,523.6v-6.245A1.422,1.422,0,0,0,389.8,516.637Zm-4.677-5.8h0.552a0.508,0.508,0,0,1,.456.289l2.38,4.84H386.9v-1.489a0.393,0.393,0,0,0-.388-0.4H386.03v-2.139a0.394,0.394,0,0,0-.388-0.4h-0.515v-0.7Zm0.994,4.038v1.091h-2.045a0.893,0.893,0,0,0-.815.542l-0.558,1.274a0.034,0.034,0,0,1-.03.02h-5.346a0.034,0.034,0,0,1-.03-0.02l-0.558-1.274a0.893,0.893,0,0,0-.815-0.542h-2.045v-1.091h12.242ZM375.649,509.8h8.7v1.74h-8.7V509.8Zm9.605,2.538v1.74H374.746v-1.74h10.508Zm-11.389-1.212a0.508,0.508,0,0,1,.456-0.289h0.552v0.7h-0.515a0.394,0.394,0,0,0-.388.4v2.139h-0.479a0.393,0.393,0,0,0-.388.4v1.49h-1.618Zm14.778,12.991H371.357a0.5,0.5,0,0,1-.5-0.51v-6.245a0.5,0.5,0,0,1,.5-0.51h4.567a0.034,0.034,0,0,1,.03.02l0.558,1.274a0.894,0.894,0,0,0,.815.541h5.346a0.894,0.894,0,0,0,.815-0.541l0.558-1.274h0a0.034,0.034,0,0,1,.03-0.02h4.567a0.5,0.5,0,0,1,.5.51V523.6h0A0.5,0.5,0,0,1,388.643,524.114Z" transform="translate(-370 -509)"/>
</svg>
