<svg xmlns="http://www.w3.org/2000/svg" width="20" height="20" viewBox="0 0 20 20">
  <defs>
    <style>
      .cls-1 {
        fill-rule: evenodd;
      }
    </style>
  </defs>
  <path id="Forma_1" data-name="Forma 1" class="cls-1" d="M389.643,884H370.357a0.357,0.357,0,0,0-.357.357v19.286a0.357,0.357,0,0,0,.357.357h19.286a0.357,0.357,0,0,0,.357-0.357V884.357A0.357,0.357,0,0,0,389.643,884Zm-0.357,19.286H370.714V884.714h18.572v18.572h0Zm-13.572-17.143a3.572,3.572,0,1,0,3.572,3.571A3.575,3.575,0,0,0,375.714,886.143Zm0,6.428a2.857,2.857,0,1,1,2.857-2.857A2.86,2.86,0,0,1,375.714,892.571Zm8.572-6.428a3.572,3.572,0,1,0,3.571,3.571A3.575,3.575,0,0,0,384.286,886.143Zm0,6.428a2.857,2.857,0,1,1,2.857-2.857A2.859,2.859,0,0,1,384.286,892.571Zm-8.572,2.143a3.572,3.572,0,1,0,3.572,3.572A3.575,3.575,0,0,0,375.714,894.714Zm0,6.429a2.857,2.857,0,1,1,2.857-2.857A2.861,2.861,0,0,1,375.714,901.143Zm8.572-6.429a3.572,3.572,0,1,0,3.571,3.572A3.576,3.576,0,0,0,384.286,894.714Zm0,6.429a2.857,2.857,0,1,1,2.857-2.857A2.86,2.86,0,0,1,384.286,901.143Zm-8.572-13.572a0.357,0.357,0,0,0-.357.358V891.5a0.357,0.357,0,0,0,.714,0v-3.571A0.357,0.357,0,0,0,375.714,887.571Zm10.087,9.2a0.358,0.358,0,0,0-.5,0l-2.525,2.526a0.357,0.357,0,1,0,.5.5l2.526-2.526A0.356,0.356,0,0,0,385.8,896.77Zm-8.3-7.413h-3.571a0.357,0.357,0,1,0,0,.714H377.5A0.357,0.357,0,1,0,377.5,889.357Zm-0.271,9.939L374.7,896.77a0.357,0.357,0,0,0-.5.5l2.526,2.526A0.357,0.357,0,1,0,377.229,899.3Zm0-2.526a0.357,0.357,0,0,0-.5,0L374.2,899.3a0.357,0.357,0,1,0,.5.5l2.525-2.526A0.356,0.356,0,0,0,377.229,896.77Zm8.842-7.413H382.5a0.357,0.357,0,1,0,0,.714h3.571A0.357,0.357,0,1,0,386.071,889.357Z" transform="translate(-370 -884)"/>
</svg>
