<svg xmlns="http://www.w3.org/2000/svg" width="20" height="22" viewBox="0 0 20 22">
  <defs>
    <style>
      .cls-1 {
        fill-rule: evenodd;
      }
    </style>
  </defs>
  <path id="Forma_1" data-name="Forma 1" class="cls-1" d="M380.579,1004.93a1.262,1.262,0,0,0,.924-0.54l3.32-4.742a0.375,0.375,0,0,0-.037-0.474,0.346,0.346,0,0,0-.458-0.038l-4.591,3.434a1.316,1.316,0,0,0-.516.95,1.329,1.329,0,0,0,.366,1.03,1.223,1.223,0,0,0,.892.38h0.1Zm-0.651-1.35a0.575,0.575,0,0,1,.226-0.42l2.8-2.09-2.025,2.89a0.567,0.567,0,0,1-.406.24,0.553,0.553,0,0,1-.435-0.17A0.583,0.583,0,0,1,379.928,1003.58Zm8.594-5.406c0-.008,0-0.016-0.008-0.024s-0.011-.011-0.015-0.018a10.039,10.039,0,0,0-1.264-1.764l0.761-.787,0.5,0.519,1.5-1.556-1.5-1.556-1.5,1.556,0.5,0.519-0.762.787a9.662,9.662,0,0,0-1.7-1.308c-0.007,0-.011-0.011-0.018-0.016s-0.015,0-.022-0.008a9.31,9.31,0,0,0-3.643-1.248v-0.437h0.532a0.917,0.917,0,0,0,0-1.833h-3.191a0.917,0.917,0,0,0,0,1.833h0.532v0.424a9.529,9.529,0,0,0-1.144.2,0.368,0.368,0,0,0-.266.44,0.354,0.354,0,0,0,.425.275,8.777,8.777,0,0,1,.986-0.175l0.38-.03c0.117-.009.224-0.016,0.328-0.021v0.725a0.355,0.355,0,1,0,.709,0v-0.723a8.573,8.573,0,0,1,3.708,1.044l-0.35.625a0.374,0.374,0,0,0,.13.5,0.339,0.339,0,0,0,.177.049,0.349,0.349,0,0,0,.307-0.183l0.349-.624a9.08,9.08,0,0,1,2.756,2.849l-0.6.361a0.374,0.374,0,0,0-.129.5,0.354,0.354,0,0,0,.307.183,0.343,0.343,0,0,0,.177-0.049l0.606-.362a9.345,9.345,0,0,1,1.01,3.891h-0.7a0.37,0.37,0,0,0,0,.74h0.7a9.336,9.336,0,0,1-1.01,3.89l-0.606-.36a0.352,0.352,0,0,0-.484.13,0.371,0.371,0,0,0,.13.5l0.6,0.36a8.99,8.99,0,0,1-2.756,2.85l-0.349-.62a0.347,0.347,0,0,0-.484-0.14,0.385,0.385,0,0,0-.13.51l0.35,0.62a8.522,8.522,0,0,1-3.708,1.04v-0.72a0.355,0.355,0,1,0-.709,0v0.73a8.871,8.871,0,0,1-1.694-.23,0.352,0.352,0,0,0-.425.28,0.374,0.374,0,0,0,.267.44,9.76,9.76,0,0,0,2.148.25h0.066a9.272,9.272,0,0,0,4.687-1.31c0.011-.01.023-0.01,0.034-0.02s0.011-.01.017-0.01a9.868,9.868,0,0,0,3.466-3.58c0.007-.01.015-0.02,0.021-0.03a0.038,0.038,0,0,1,.008-0.02A10.161,10.161,0,0,0,388.522,998.174Zm-0.025-4.149,0.5,0.519-0.5.519-0.5-.519Zm-8.571-.817V992.1h-1.241a0.184,0.184,0,0,1,0-.367h3.191a0.184,0.184,0,0,1,0,.367h-1.241v1.108c-0.123,0-.241-0.008-0.354-0.008h-0.058c-0.058,0-.117,0-0.175,0Zm-2.837,2.925h-1.773a0.367,0.367,0,0,0,0,.734h1.773A0.367,0.367,0,0,0,377.089,996.133Zm0,2.567h-3.546a0.367,0.367,0,0,0,0,.733h3.546A0.367,0.367,0,0,0,377.089,998.7Zm0,2.57H371.77a0.365,0.365,0,0,0,0,.73h5.319A0.365,0.365,0,0,0,377.089,1001.27Zm0,2.56h-6.737a0.37,0.37,0,0,0,0,.74h6.737A0.37,0.37,0,0,0,377.089,1003.83Zm0,2.57h-4.61a0.365,0.365,0,0,0,0,.73h4.61A0.365,0.365,0,0,0,377.089,1006.4Zm0,2.57h-2.482a0.365,0.365,0,0,0,0,.73h2.482A0.365,0.365,0,0,0,377.089,1008.97Z" transform="translate(-370 -991)"/>
</svg>
