<svg xmlns="http://www.w3.org/2000/svg" width="101" height="103" viewBox="0 0 101 103">
  <defs>
    <style>
      .cls-1 {
        fill: #88c3ff;
        fill-rule: evenodd;
      }
    </style>
  </defs>
  <path id="Forma_1" data-name="Forma 1" class="cls-1" d="M1001.35,501.4a1.473,1.473,0,0,0-1.6,1.339,26.369,26.369,0,1,1-.752-8.957,1.471,1.471,0,1,0,2.848-.739,29.333,29.333,0,1,0,.84,9.949A1.471,1.471,0,0,0,1001.35,501.4Zm-27.937-37.51a36.472,36.472,0,0,0-25.262,10.137H917.545a5.6,5.6,0,0,1-5.6-5.6V462.55a5.605,5.605,0,0,1,5.6-5.6h48.8a5.574,5.574,0,0,1,5.349,3.932,1.472,1.472,0,0,0,2.812-.874,8.511,8.511,0,0,0-3.358-4.537,8.532,8.532,0,0,0,3.743-7.059v-5.878A8.552,8.552,0,0,0,966.34,434h-48.8A8.552,8.552,0,0,0,909,442.538v5.878a8.536,8.536,0,0,0,3.754,7.067A8.533,8.533,0,0,0,909,462.55v5.877a8.535,8.535,0,0,0,3.754,7.067A8.536,8.536,0,0,0,909,482.561v5.878a8.536,8.536,0,0,0,3.754,7.067A8.535,8.535,0,0,0,909,502.573v5.877a8.533,8.533,0,0,0,3.754,7.067A8.536,8.536,0,0,0,909,522.584v5.878A8.552,8.552,0,0,0,917.545,537h38.421a1.472,1.472,0,1,0,0-2.943H917.545a5.6,5.6,0,0,1-5.6-5.6v-5.878a5.6,5.6,0,0,1,5.6-5.595h23.249A36.576,36.576,0,1,0,973.413,463.886Zm-61.468-15.47v-5.878a5.6,5.6,0,0,1,5.6-5.6h48.8a5.6,5.6,0,0,1,5.6,5.6v5.878a5.6,5.6,0,0,1-5.6,5.6h-48.8A5.6,5.6,0,0,1,911.945,448.416Zm0,40.023v-5.878a5.6,5.6,0,0,1,5.6-5.595h27.847a36.416,36.416,0,0,0-8,17.068H917.545A5.6,5.6,0,0,1,911.945,488.439Zm0,20.011v-5.877a5.6,5.6,0,0,1,5.6-5.6h19.447c-0.108,1.141-.166,2.3-0.166,3.466a36.339,36.339,0,0,0,2.629,13.6h-21.91A5.6,5.6,0,0,1,911.945,508.45Zm61.468,25.607a33.614,33.614,0,1,1,33.637-33.614A33.665,33.665,0,0,1,973.413,534.057Zm2.621-36.468-0.263-.1V486.685l0.431,0.031a11.119,11.119,0,0,1,4.569,1.336,3.589,3.589,0,0,0,1.374.5c1.255,0,1.787-1.74,1.787-2.432,0-1.139-1.384-1.873-2.545-2.288a18.134,18.134,0,0,0-5.226-.89l-0.39-.012V481.2a1.066,1.066,0,0,0-1.09-.741,0.925,0.925,0,0,0-1.041.741V483l-0.361.038c-2.734.288-9.094,1.726-9.094,8.849,0,6.1,4.671,7.761,9.187,9.366l0.268,0.095v12.4l-0.434-.034a10.248,10.248,0,0,1-6.364-2.857,3.321,3.321,0,0,0-1.666-1.02c-0.954,0-1.886,1.392-1.886,2.432,0,1.1,1.025,2.426,2.674,3.47a14.207,14.207,0,0,0,7.28,2l0.4,0.006v1.938a0.925,0.925,0,0,0,1.041.741,1.065,1.065,0,0,0,1.09-.741v-2.041l0.347-.048c5.617-.78,8.71-4.276,8.71-9.845C984.828,501.356,980.484,499.224,976.034,497.589Zm-2.1-.741-0.545-.205c-2.655-1-5.038-2.156-5.038-5.25,0-2.537,1.822-4.163,5.131-4.576l0.452-.056v10.087Zm2.009,16.769-0.475.088V502.12l0.561,0.24c2.286,0.979,4.623,2.45,4.623,5.939C980.657,511.167,978.985,513.055,975.948,513.617Z" transform="translate(-909 -434)"/>
</svg>
