<svg xmlns="http://www.w3.org/2000/svg" width="127" height="96" viewBox="0 0 127 96">
  <defs>
    <style>
      .cls-1 {
        fill: #fff;
        fill-rule: evenodd;
      }
    </style>
  </defs>
  <path class="cls-1" d="M634.554,445.557h-73.57a2.53,2.53,0,0,0,0,5.06h73.57A2.53,2.53,0,1,0,634.554,445.557Zm15.574,0h-3.186a2.53,2.53,0,1,0,0,5.06h3.186A2.53,2.53,0,1,0,650.128,445.557ZM670.47,477.09h-3.553V445.336A9.346,9.346,0,0,0,657.581,436H558.233A12.246,12.246,0,0,0,546,448.232c0,0.032,0,.064,0,0.1,0,0.016,0,.032,0,0.049v68.785A14.856,14.856,0,0,0,560.84,532H664.387a2.53,2.53,0,0,0,2.53-2.53V509.735h3.553a2.53,2.53,0,0,0,2.53-2.529V479.62A2.53,2.53,0,0,0,670.47,477.09ZM558.233,441.059h99.348a4.282,4.282,0,0,1,4.277,4.277v10.069H558.233A7.173,7.173,0,0,1,558.233,441.059Zm103.625,85.882H560.84a9.791,9.791,0,0,1-9.78-9.78v-59.03a12.165,12.165,0,0,0,7.173,2.333H661.858V477.09H647.48a16.323,16.323,0,1,0,0,32.645h14.378v17.206Zm6.082-22.265H647.48a11.264,11.264,0,1,1,0-22.527h20.46v22.527Zm-19.826-18.653a7.39,7.39,0,1,0,7.39,7.39A7.4,7.4,0,0,0,648.114,486.023Zm0,9.72a2.331,2.331,0,1,1,2.331-2.33A2.332,2.332,0,0,1,648.114,495.743Z" transform="translate(-546 -436)"/>
</svg>
