<svg xmlns="http://www.w3.org/2000/svg" width="129" height="105" viewBox="0 0 129 105">
  <defs>
    <style>
      .cls-1 {
        fill: #88c3ff;
        fill-rule: evenodd;
      }
    </style>
  </defs>
  <path id="Forma_1" data-name="Forma 1" class="cls-1" d="M1268.73,519.168a5.588,5.588,0,1,0,5.6,5.587A5.607,5.607,0,0,0,1268.73,519.168Zm0,7.409a1.822,1.822,0,1,1,1.83-1.822A1.827,1.827,0,0,1,1268.73,526.577Zm90.5-85.836a30.027,30.027,0,0,0-39.41-2.569l-1.41-.162c-4.26-.487-13.12-1.5-15.21-1.748a11.252,11.252,0,0,0-8.46,2.481l-18.06,14.889a18.194,18.194,0,0,0-5.99,9.212c-1.99,7.195-5.69,19.9-8.29,25.019l-7.92,7.9-0.53-.521a4.418,4.418,0,0,0-6.23,0l-7.44,7.414a4.4,4.4,0,0,0,0,6.206l1.98,1.967a1.843,1.843,0,1,0,2.61-2.6l-1.97-1.967a0.7,0.7,0,0,1,0-1l7.44-7.414a0.707,0.707,0,0,1,1,0l1.83,1.821h0l11.64,11.6,13.48,13.431a0.7,0.7,0,0,1,0,1l-7.44,7.414a0.7,0.7,0,0,1-1,0l-16.63-16.565a1.843,1.843,0,1,0-2.61,2.6l16.63,16.566a4.411,4.411,0,0,0,6.22,0l7.44-7.414a4.378,4.378,0,0,0,0-6.207l-0.53-.529,1.16-1.152a8.35,8.35,0,0,1,3.58-2.111c0.03-.007.05-0.015,0.08-0.023l13.53-4.542a25.192,25.192,0,0,0,11.63-8.2l6.78-8.544,18.09-18.029a17.544,17.544,0,0,0,2.88.3v1.464a1.249,1.249,0,0,0,1.37,1.086,1.378,1.378,0,0,0,1.43-1.086v-1.606c5.11-.708,8.62-3.919,8.62-9.728,0-6.423-4.5-8.5-8.62-10.012v-9.586c3.31,0.236,4.54,1.747,5.68,1.747,1.42,0,2.09-1.794,2.09-2.692,0-2.314-4.55-3.306-7.78-3.4v-1.275a1.366,1.366,0,0,0-1.42-1.086,1.248,1.248,0,0,0-1.37,1.086v1.369c-4.5.473-9.01,2.834-9.01,8.784,0,6.045,4.74,7.745,9.01,9.256v3.65c-1.3-1.539-3.43-2.43-6.17-2.577-6.26-.339-14.91,3.138-19.69,7.907-3.05,3.04-6.52,6.494-8.43,8.4a3.139,3.139,0,0,1-2.23.916h-0.07a4.551,4.551,0,0,1-3.52-2.694v-18.1l6.05-4.962,4.78-.732a29.827,29.827,0,0,0,.01,12.927,1.842,1.842,0,0,0,1.8,1.443,1.816,1.816,0,0,0,.4-0.044,1.835,1.835,0,0,0,1.4-2.194,26.292,26.292,0,0,1,.65-13.745c0.01-.015.01-0.032,0.02-0.047v-0.017a25.86,25.86,0,0,1,6.4-10.365c0.63-.625,1.29-1.226,1.98-1.786a0.13,0.13,0,0,0,.04-0.036c0.01,0,.01,0,0.01-0.006a26.326,26.326,0,0,1,35.09,1.828,26.086,26.086,0,0,1,0,36.99,26.452,26.452,0,0,1-25.13,6.832,1.84,1.84,0,1,0-.92,3.564,30,30,0,0,0,28.66-7.794A29.762,29.762,0,0,0,1359.23,440.741Zm-18.62,23.88c2.32,0.991,4.17,2.313,4.17,5.289,0,2.691-1.61,4.2-4.17,4.675v-9.964Zm-6.78-10.768c0-2.455,1.9-3.636,4.55-3.967v8.595C1335.87,457.537,1333.83,456.545,1333.83,453.853Zm-8.46,29.724-1.74-1.728a1.656,1.656,0,0,1,0-2.332l3.03-3.011a4.967,4.967,0,0,1,6.35-.546Zm-15.4-32.09-6.99,1.069a1.881,1.881,0,0,0-.9.4l-7.11,5.836a1.83,1.83,0,0,0-.68,1.421l0.01,19.249a1.889,1.889,0,0,0,.06.474,8.109,8.109,0,0,0,7.15,5.622h0.07a6.81,6.81,0,0,0,4.84-1.994c1.91-1.905,5.38-5.359,8.43-8.4,4.06-4.049,11.64-7.113,16.88-6.834,1.2,0.065,2.79.343,3.57,1.306,0.04,0.051.09,0.1,0.13,0.147,0.4,0.39,1.46,1.449.1,3.464a8.686,8.686,0,0,0-11.49.658l-3.02,3.011a5.331,5.331,0,0,0,0,7.536l1.74,1.728-8.32,8.287a1.4,1.4,0,0,0-.14.16l-6.85,8.628a21.512,21.512,0,0,1-9.91,7l-13.49,4.526a12.037,12.037,0,0,0-5.13,3.032l-1.16,1.152-10.33-10.3-10.34-10.3,8.13-8.1a1.969,1.969,0,0,0,.33-0.446c2.76-5.248,6.64-18.537,8.7-25.992a14.571,14.571,0,0,1,4.78-7.356l18.06-14.888a7.546,7.546,0,0,1,5.67-1.663c1.84,0.218,8.85,1.021,13.43,1.544A29.427,29.427,0,0,0,1309.97,451.487Z" transform="translate(-1239 -432)"/>
</svg>
